<?xml version="1.0" standalone="no"?>
<!DOCTYPE svg PUBLIC "-//W3C//DTD SVG 20010904//EN"
 "http://www.w3.org/TR/2001/REC-SVG-20010904/DTD/svg10.dtd">
<svg version="1.0" xmlns="http://www.w3.org/2000/svg"
 width="122.000000pt" height="122.000000pt" viewBox="0 0 122.000000 122.000000"
 preserveAspectRatio="xMidYMid meet">
<metadata>
Created by potrace 1.14, written by Peter Selinger 2001-2017
</metadata>
<g transform="translate(0.000000,122.000000) scale(0.100000,-0.100000)"
fill="#000000" stroke="none">
<path d="M838 1212 c-15 -2 -39 -17 -53 -33 -68 -82 52 -189 128 -114 32 33
37 55 21 93 -14 35 -57 59 -96 54z"/>
<path d="M560 1203 c-32 -11 -60 -47 -60 -75 0 -39 40 -78 80 -78 38 0 80 39
80 74 0 45 -61 93 -100 79z"/>
<path d="M278 1168 c-41 -32 -16 -102 33 -93 49 10 66 57 31 88 -22 20 -42 21
-64 5z"/>
<path d="M19 1149 c-19 -14 -22 -22 -13 -35 15 -25 51 -28 64 -5 14 27 13 34
-8 48 -15 9 -23 7 -43 -8z"/>
<path d="M811 946 c-32 -18 -50 -53 -44 -89 17 -105 173 -92 173 14 0 40 -18
65 -57 80 -32 12 -43 11 -72 -5z"/>
<path d="M1084 950 c-54 -21 -70 -91 -31 -135 28 -32 68 -40 108 -20 59 31 62
111 6 146 -35 21 -51 22 -83 9z"/>
<path d="M545 938 c-47 -25 -60 -78 -27 -116 59 -68 166 -5 132 78 -11 26 -47
50 -73 50 -7 0 -21 -6 -32 -12z"/>
<path d="M264 895 c-15 -23 -15 -27 0 -50 29 -44 96 -26 96 25 0 51 -67 69
-96 25z"/>
<path d="M19 899 c-8 -5 -9 -9 -4 -9 6 0 3 -5 -5 -11 -11 -8 -12 -12 -2 -16 6
-2 10 -9 6 -14 -3 -5 -2 -9 3 -10 4 0 16 -2 25 -4 20 -4 27 5 33 35 6 29 -29
47 -56 29z"/>
<path d="M795 678 c-31 -28 -38 -73 -17 -110 48 -83 187 -26 161 65 -18 65
-94 88 -144 45z"/>
<path d="M1075 688 c-43 -25 -58 -75 -35 -119 31 -57 127 -52 159 8 18 35 13
63 -18 94 -31 31 -70 37 -106 17z"/>
<path d="M525 665 c-50 -49 -14 -129 57 -127 39 1 78 40 78 78 0 35 -42 74
-80 74 -19 0 -40 -9 -55 -25z"/>
<path d="M284 657 c-26 -14 -33 -27 -28 -51 12 -62 104 -56 104 6 0 39 -42 64
-76 45z"/>
<path d="M17 639 c-23 -13 -22 -28 4 -50 17 -15 24 -16 40 -6 22 14 23 21 9
48 -12 21 -26 23 -53 8z"/>
<path d="M839 442 c-40 -5 -72 -45 -72 -89 0 -94 140 -114 171 -24 20 58 -36
122 -99 113z"/>
<path d="M1093 438 c-65 -17 -84 -94 -37 -142 37 -37 86 -35 125 3 31 31 36
59 17 94 -23 44 -56 58 -105 45z"/>
<path d="M565 432 c-33 -7 -65 -43 -65 -74 0 -39 40 -78 80 -78 38 0 80 39 80
73 0 29 -32 73 -57 79 -10 2 -27 2 -38 0z"/>
<path d="M282 404 c-23 -10 -33 -41 -20 -68 6 -14 14 -26 17 -27 3 0 15 -2 26
-4 39 -7 70 46 47 82 -9 14 -52 24 -70 17z"/>
<path d="M32 390 c-31 -13 -39 -40 -17 -56 22 -16 59 -19 50 -4 -3 6 -1 10 4
10 17 0 13 30 -4 36 -8 4 -12 10 -9 15 6 11 6 11 -24 -1z"/>
<path d="M814 168 c-27 -12 -54 -58 -49 -84 2 -10 4 -23 4 -27 2 -17 55 -57
77 -57 80 0 124 82 75 140 -28 33 -71 44 -107 28z"/>
<path d="M545 158 c-52 -28 -60 -84 -19 -125 21 -21 32 -24 61 -20 44 8 60 21
68 59 9 37 -8 72 -42 87 -30 14 -42 13 -68 -1z"/>
<path d="M264 115 c-15 -23 -15 -27 0 -50 11 -17 26 -25 44 -25 35 0 52 17 52
52 0 49 -68 66 -96 23z"/>
<path d="M18 110 c-20 -17 -21 -21 -8 -30 8 -5 11 -10 5 -10 -5 0 -2 -5 8 -11
37 -21 74 36 38 58 -16 10 -24 9 -43 -7z"/>
</g>
</svg>
